# xmcd
#
# Track frame offsets: 
#        150
#        21495
#        38745
#        56962
#        72615
#        89582
#        102355
#        120012
#        144860
#        168047
#        189660
#        203912
#        223387
#        244027
#
# Disc length: 3577 seconds
#
# Revision: 2
# Processed by: cddbd v1.5.2PL0 Copyright (c) Steve Scherf et al.
# Submitted via: ExactAudioCopyFreeDBPlugin 1.0
#
DISCID=ce0df70e
DTITLE=Q.Stone - Pink On Blue
DYEAR=1990
DGENRE=Blues
TTITLE0=Waiting For The Dawn
TTITLE1=You Should Know
TTITLE2=Shake The Tree
TTITLE3=Walk In The Rain
TTITLE4=Farewell Berlin
TTITLE5=Freedom ( Knocking On Your Door)
TTITLE6=Rocking Chair
TTITLE7=Western Paradise
TTITLE8=Talking About Love
TTITLE9=Air Pie
TTITLE10=Get Up
TTITLE11=Rusty Bells
TTITLE12=Just Dust
TTITLE13=One Moment
EXTD=
EXTT0=
EXTT1=
EXTT2=
EXTT3=
EXTT4=
EXTT5=
EXTT6=
EXTT7=
EXTT8=
EXTT9=
EXTT10=
EXTT11=
EXTT12=
EXTT13=
PLAYORDER=
